<?xml version="1.0" standalone="no"?>
<!DOCTYPE svg PUBLIC "-//W3C//DTD SVG 1.0//EN" "http://www.w3.org/TR/2001/REC-SVG-20010904/DTD/svg10.dtd">
<svg xmlns="http://www.w3.org/2000/svg" xmlns:xlink="http://www.w3.org/1999/xlink" id="body_1" width="102" height="77">

<g transform="matrix(0.046238445 0 0 0.046238445 8.138002 -0)">
	<g>
        <path d="M619.823 209.935C 722.20703 150.83499 824.562 91.697 926.96497 32.623993C 1127.396 148.206 1327.714 263.97498 1528.1069 379.632C 1542.1029 387.86398 1556.371 395.67398 1570.2169 404.15997C 1449.397 474.08398 1328.4369 543.772 1207.57 613.621C 1114.3099 667.399 1021.13495 721.337 927.829 775.04895C 910.782 765.9249 894.402 755.58997 877.393 746.39996C 861.107 737.25696 844.905 727.95496 828.891 718.36096C 815.787 710.40094 802.354 703.01294 789.156 695.21295C 785.551 693.092 781.919 691.01697 778.201 689.11096C 761.849 680.024 745.685 670.57196 729.567 661.082C 719.26 654.633 708.559 648.85095 698.102 642.665C 691.841 639.107 685.70197 635.34296 679.30896 632.039C 663.02295 622.906 646.82996 613.584 630.80597 604C 614.238 594.181 597.60394 584.447 580.717 575.173C 564.243 565.83295 547.82495 556.38995 531.529 546.74896C 518.04 538.38495 504.05298 530.85693 490.423 522.72797C 487.532 521.029 484.584 519.46094 481.609 517.941C 465.088 508.64798 448.708 499.07297 432.327 489.53598C 416.003 479.59497 399.416 470.07697 382.679 460.84897C 366.214 451.48996 349.796 442.06598 333.50098 432.41595C 317.38397 422.48495 300.675 413.54794 284.49197 403.71997C 300.52496 394.09796 316.80197 384.87097 333.041 375.60596C 346.54898 382.66495 359.494 390.72797 372.776 398.19995C 436.025 434.34894 498.965 471.03296 562.092 507.37994C 683.72 577.679 805.45 647.791 927.03 718.155C 933.929 714.888 940.294 710.664 946.95905 706.966C 957.07806 701.062 967.34705 695.42 977.31604 689.253C 1043.41 650.842 1109.701 612.768 1175.8881 574.50696C 1257.6671 527.19696 1339.587 480.12097 1421.31 432.69794C 1430.6311 427.53494 1439.802 422.09094 1449.0481 416.77792C 1456.238 412.44092 1463.8792 408.80792 1470.6661 403.80493C 1455.9192 394.76492 1440.7311 386.45795 1425.8062 377.69992C 1261.1871 282.6289 1096.5302 187.61392 931.91016 92.53293C 930.2582 91.63193 928.5961 90.75893 926.95416 89.87593C 838.3132 140.74393 749.9252 192.07193 661.35016 243.07094C 657.33215 245.25793 653.6252 248.06494 649.37213 249.81094C 647.58813 250.60895 645.76715 249.47295 644.1251 248.88194C 626.0831 240.31195 607.2251 233.40294 587.7841 228.74695C 598.186 222.035 609.178 216.262 619.823 209.935z" stroke="#C83737" stroke-width="0.5" fill="#C83737" fill-rule="nonzero" />
        <path d="M661.351 243.071C 749.926 192.07199 838.314 140.74399 926.955 89.87599C 926.974 108.87499 926.917 127.87399 926.98303 146.874C 867.16003 181.32399 807.421 215.915 747.61707 250.39398C 731.3591 259.912 714.89404 269.07397 698.7391 278.761C 714.0121 288.814 728.95605 299.38397 743.31805 310.69498C 767.02905 329.80698 789.46405 350.74 808.44507 374.61996C 818.88306 387.93097 828.42004 402.21796 834.4471 418.11896C 837.0381 424.74597 838.11707 431.82394 838.9901 438.86395C 884.8551 465.29794 930.6631 491.82495 976.5371 518.23096C 976.8091 568.217 976.5651 618.20197 976.6591 668.188C 976.73413 675.209 976.17114 682.278 977.3161 689.252C 967.3471 695.419 957.0781 701.06104 946.9591 706.965C 940.2941 710.663 933.9301 714.888 927.0301 718.15405C 926.8521 668.32806 927.0111 618.51105 926.94507 568.68506C 926.91705 561.29706 927.1421 553.91907 926.7391 546.5411C 889.10706 525.0541 851.6711 503.23007 814.1141 481.6211C 805.8721 476.7301 797.4151 472.19708 789.2671 467.1561C 788.5541 450.71008 780.8661 435.6721 772.3611 421.9481C 757.7741 399.2971 739.2441 379.4531 719.50305 361.2331C 693.85803 337.8031 665.77203 317.0491 635.921 299.27908C 607.75104 282.5611 577.956 268.0301 546.257 259.3751C 537.809 256.9061 529.07904 255.7051 520.43304 254.1841C 520.64 246.8531 523.127 239.2681 528.806 234.34909C 536.729 227.31808 547.796 225.5441 558.03705 225.3091C 568.05304 225.2061 577.994 226.7731 587.78406 228.7451C 607.22406 233.40111 626.08307 240.3101 644.12506 248.8801C 645.76807 249.4711 647.58905 250.6071 649.3721 249.8091C 653.625 248.065 657.333 245.258 661.351 243.071z" stroke="#782121" stroke-width="0.5" fill="#782121" fill-rule="nonzero" />
        <path d="M926.955 89.876C 928.598 90.758 930.25903 91.631 931.911 92.533C 1096.53 187.614 1261.187 282.629 1425.807 377.69998C 1440.732 386.45798 1455.92 394.766 1470.667 403.805C 1463.88 408.80798 1456.239 412.44098 1449.049 416.77798C 1439.803 422.09097 1430.632 427.53497 1421.3109 432.698C 1407.1929 423.884 1392.512 415.98 1378.1869 407.503C 1276.6008 348.87198 1175.0339 290.222 1073.4669 231.57199C 1040.763 212.58199 1007.8609 193.93999 975.2979 174.715C 959.23694 165.356 943.1949 155.979 926.9829 146.873C 926.917 127.874 926.974 108.875 926.955 89.876z" stroke="#D35F5F" stroke-width="0.5" fill="#D35F5F" fill-rule="nonzero" />
        <path d="M747.617 250.393C 807.421 215.91501 867.16003 181.324 926.98303 146.87302C 943.19403 155.97801 959.23706 165.35602 975.29803 174.71501C 972.35004 178.30101 968.192 180.432 964.174 182.544C 898.137 220.711 832.052 258.794 766.02405 296.971C 758.40204 301.449 750.4421 305.41 743.317 310.695C 728.955 299.384 714.011 288.814 698.73804 278.76102C 714.894 269.073 731.359 259.911 747.617 250.393z" stroke="#0C242C" stroke-width="0.5" fill="#0C242C" fill-rule="nonzero" />
        <path d="M975.298 174.715C 1007.86096 193.94 1040.763 212.582 1073.4669 231.57199C 1175.0339 290.222 1276.601 348.872 1378.1869 407.503C 1392.5118 415.979 1407.1929 423.883 1421.3109 432.698C 1339.5879 480.121 1257.668 527.197 1175.8889 574.507C 1109.7019 612.768 1043.4109 650.84204 977.3169 689.25305C 976.1719 682.27905 976.7349 675.21 976.6599 668.189C 976.5659 618.203 976.80994 568.218 976.5379 518.23206C 930.6639 491.82605 884.8559 465.29907 838.9909 438.86505C 838.1179 431.82504 837.0389 424.74704 834.4479 418.12006C 828.4219 402.21805 818.88385 387.93106 808.44586 374.62106C 789.4659 350.74106 767.0309 329.80807 743.31885 310.69608C 750.44385 305.41107 758.4039 301.45007 766.0259 296.97208C 832.0539 258.79507 898.1379 220.71207 964.1759 182.54507C 968.192 180.432 972.35 178.301 975.298 174.715z" stroke="#12333B" stroke-width="0.5" fill="#12333B" fill-rule="nonzero" />
        <path d="M381.422 176.152C 382.548 175.05399 383.891 175.95499 385.008 176.54599C 419.768 196.54 454.312 216.90099 489.1 236.84799C 498.72202 242.57399 508.66202 247.793 518.08704 253.857C 504.88004 253.791 489.94504 253.60399 479.40305 262.859C 473.35803 267.84302 471.46204 275.77502 470.67303 283.219C 455.67303 274.893 440.94403 266.069 426.02902 257.602C 409.855 248.11198 393.46603 238.997 377.433 229.26299C 362.81702 220.79599 348.13602 212.44199 333.56802 203.88998C 349.44 194.512 365.492 185.435 381.422 176.152z" stroke="#782121" stroke-width="0.5" fill="#782121" fill-rule="nonzero" />
        <path d="M333.098 203.608L333.567 203.89C 348.136 212.442 362.817 220.796 377.43198 229.263C 393.46497 238.997 409.85498 248.112 426.02798 257.602C 440.94397 266.069 455.672 274.893 470.672 283.219C 471.461 275.775 473.357 267.843 479.402 262.859C 489.944 253.60301 504.87802 253.79102 518.086 253.85701C 518.865 253.923 519.644 254.035 520.433 254.186C 529.078 255.707 537.808 256.908 546.25696 259.377C 577.957 268.032 607.751 282.56302 635.92096 299.281C 665.772 317.051 693.85693 337.805 719.5029 361.23502C 739.24396 379.45502 757.7739 399.299 772.36096 421.95C 780.86597 435.674 788.55396 450.712 789.26697 467.15802C 797.415 472.199 805.873 476.73303 814.11395 481.62302C 851.67096 503.23203 889.10693 525.057 926.73895 546.543C 927.14294 553.921 926.91693 561.299 926.94495 568.687C 927.0109 618.513 926.85095 668.33 927.02997 718.156C 805.45 647.791 683.72 577.679 562.093 507.38C 498.966 471.034 436.026 434.349 372.77704 398.2C 359.49405 390.72803 346.55005 382.665 333.04205 375.60602C 333.38904 326.071 333.08905 276.527 333.19205 226.99101C 333.145 219.2 333.285 211.4 333.098 203.608zM446.886 311.024C 444.539 311.606 445.19598 314.356 445.037 316.159C 445.15 326.494 444.99 336.839 445.103 347.18298C 444.896 349.304 446.68 350.731 447.872 352.23297C 460.14102 365.93796 472.17502 379.84897 484.415 393.58298C 485.17502 394.64398 486.38602 395.60098 486.461 397.00897C 486.75198 401.47696 486.508 405.97397 486.489 410.46097C 482.734 408.56497 479.101 406.43396 475.487 404.29398C 475.40298 398.11697 475.487 391.93097 475.412 385.75497C 465.31198 381.606 455.361 377.07196 445.18597 373.11996C 444.97897 379.16498 445.11096 385.21997 445.03598 391.27396C 445.08298 393.55496 444.81097 396.02396 446.13397 398.04196C 449.76697 404.05896 453.69098 409.90695 457.32297 415.92395C 458.88098 418.34595 460.22397 421.16196 462.93597 422.50394C 475.93698 429.90094 488.83496 437.46695 501.826 444.89194C 506.914 442.81793 511.955 440.62094 516.93896 438.32092C 516.94794 425.12292 516.98596 411.93393 516.93896 398.74493C 517.15497 396.87692 515.85895 395.45993 514.74194 394.15494C 502.35095 380.27194 490.20395 366.18195 477.82294 352.27994C 474.04895 348.84393 476.09595 343.29694 475.62595 338.82794C 479.36194 340.89294 483.06995 343.02396 486.72095 345.23895C 486.68295 349.86694 486.68295 354.49496 486.80496 359.12195C 496.92395 363.16794 506.83698 367.72995 516.98395 371.71893C 517.15295 366.96893 517.10596 362.21893 517.1439 357.47894C 517.10693 355.18893 517.3219 352.70993 515.92395 350.74893C 511.90594 344.45993 507.82294 338.20795 503.84296 331.89993C 502.04095 328.59595 498.38895 327.20694 495.33795 325.36694C 483.59494 318.75894 472.08594 311.68094 460.23096 305.31595C 455.569 306.584 451.327 309.137 446.886 311.024zM520.696 340.217C 520.59296 349.613 520.565 359.019 520.71497 368.42502C 526.49695 371.76703 532.43896 374.864 538.04297 378.497C 538.878 381.73502 538.381 385.143 538.49396 388.457C 538.5029 414.346 538.41895 440.245 538.532 466.134C 548.539 471.80402 558.414 477.708 568.467 483.303C 568.664 454.203 568.495 425.113 568.55096 396.014C 574.568 399.243 580.27496 403.045 586.42395 406.049C 586.68695 396.728 586.51794 387.406 586.527 378.095C 564.599 365.43 542.784 352.57 520.696 340.217zM590.226 395.356C 590.076 422.48398 590.26404 449.61298 590.141 476.741C 590.132 478.797 590.104 481.012 591.39 482.767C 595.50104 489.272 599.66003 495.768 603.762 502.292C 605.60205 505.559 609.31 506.854 612.33203 508.741C 623.74603 515.105 634.851 522.061 646.39703 528.163C 650.34 527.224 653.90704 525.159 657.69904 523.75104C 659.351 522.94403 662.083 522.35205 661.557 519.91205C 661.604 493.29105 661.519 466.66904 661.59503 440.04803C 661.632 438.13303 661.379 436.17102 660.262 434.55704C 656.79803 428.96204 653.17505 423.46204 649.758 417.83905C 648.219 415.39804 646.82 412.63904 644.145 411.26804C 633.20905 404.98804 622.273 398.70804 611.385 392.35303C 609.31 391.21704 607.349 389.75302 605.03 389.19003C 599.96 390.888 595.219 393.441 590.226 395.356zM670.925 426.84C 670.82196 465.35498 670.963 503.869 670.859 542.394C 680.828 548.251 690.75903 554.212 700.963 559.657C 701.282 544.234 701.01904 528.802 701.104 513.37C 705.047 515.566 708.933 517.876 712.885 520.082C 713.11 535.65497 712.913 551.22797 712.979 566.80096C 722.976 572.50793 732.823 578.47797 742.942 583.97C 743.167 570.115 742.93304 556.25995 743.073 542.404C 742.998 539.92596 743.336 537.194 741.796 535.063C 738.182 529.384 734.512 523.733 730.888 518.063C 734.99 516.17596 739.102 514.299 743.213 512.403C 743.241 503.60703 743.288 494.821 743.232 486.035C 743.335 483.454 741.693 481.351 740.416 479.276C 736.671 473.587 733.122 467.768 729.461 462.023C 727.968 459.39502 725.18097 458.02402 722.665 456.588C 705.366 446.769 688.235 436.631 670.925 426.84zM752.536 473.934C 752.611 512.571 752.395 551.217 752.63904 589.854C 773.44104 601.428 793.78204 613.81903 814.62103 625.299C 814.903 615.771 814.687 606.24304 814.74304 596.716C 804.85803 590.793 794.80505 585.17 784.84503 579.397C 784.01904 578.76794 782.63 578.224 782.789 576.975C 782.601 572.019 782.817 567.07196 782.77 562.125C 792.645 567.748 802.445 573.511 812.339 579.115C 812.358 569.803 812.527 560.49097 812.245 551.198C 802.351 545.735 792.711 539.83 782.807 534.405C 782.723 529.30804 782.788 524.22003 782.704 519.12305C 793.508 525.309 804.238 531.61707 815.07 537.76605C 815.042 528.46405 815.17303 519.17004 814.995 509.87704C 794.111 498.012 773.412 485.818 752.536 473.934z" stroke="#D35F5F" stroke-width="0.5" fill="#D35F5F" fill-rule="nonzero" />
        <path d="M446.886 311.024C 451.326 309.137 455.569 306.58398 460.23398 305.317C 472.08997 311.681 483.598 318.75897 495.34097 325.36798C 498.39197 327.20798 502.04297 328.597 503.84598 331.90097C 507.826 338.20898 511.90897 344.46097 515.927 350.74997C 517.326 352.71198 517.11 355.18997 517.147 357.47998C 517.11 362.21997 517.15594 366.96997 516.987 371.71997C 506.84 367.73096 496.927 363.16797 486.80798 359.123C 486.68597 354.495 486.68597 349.86697 486.72397 345.24C 483.07196 343.025 479.36496 340.89398 475.62897 338.82898C 476.09796 343.29697 474.05197 348.84497 477.82596 352.28098C 490.20697 366.18298 502.35394 380.27298 514.74493 394.15598C 515.86194 395.46097 517.1569 396.87796 516.94196 398.74597C 516.98895 411.93497 516.9509 425.123 516.94196 438.32196C 511.95795 440.62195 506.91696 442.81796 501.82895 444.89297C 488.83694 437.468 475.93994 429.90198 462.93896 422.50497C 460.22595 421.16296 458.88397 418.347 457.32596 415.925C 453.69296 409.908 449.76895 404.06 446.13696 398.043C 444.81296 396.025 445.08597 393.556 445.03897 391.275C 445.11398 385.22 444.98297 379.166 445.18896 373.121C 455.36395 377.073 465.31497 381.607 475.41498 385.756C 475.49 391.933 475.40598 398.11902 475.49 404.295C 479.104 406.43503 482.737 408.566 486.492 410.462C 486.51102 405.975 486.755 401.479 486.464 397.01C 486.38898 395.60202 485.17798 394.644 484.418 393.584C 472.177 379.851 460.143 365.93903 447.875 352.234C 446.683 350.732 444.899 349.30502 445.106 347.18402C 444.99298 336.84003 445.15298 326.49503 445.03998 316.16003C 445.197 314.356 444.54 311.606 446.886 311.024z" stroke="#FFFFFF" stroke-width="0.5" fill="#FFFFFF" fill-rule="nonzero" />
        <path d="M520.696 340.217C 542.784 352.57 564.599 365.43002 586.527 378.09302C 586.518 387.40503 586.68695 396.726 586.42395 406.04703C 580.27594 403.04303 574.56793 399.24103 568.55096 396.01202C 568.49493 425.11203 568.66394 454.20203 568.467 483.30103C 558.414 477.70602 548.53796 471.80203 538.532 466.13202C 538.419 440.243 538.50397 414.34402 538.49396 388.45502C 538.381 385.14102 538.87897 381.734 538.04297 378.49503C 532.43896 374.86203 526.49695 371.765 520.71497 368.42303C 520.565 359.019 520.593 349.613 520.696 340.217z" stroke="#FFFFFF" stroke-width="0.5" fill="#FFFFFF" fill-rule="nonzero" />
        <path d="M590.226 395.356C 595.22003 393.44098 599.96 390.888 605.029 389.189C 607.34796 389.75198 609.309 391.217 611.384 392.352C 622.27295 398.707 633.209 404.987 644.144 411.267C 646.819 412.638 648.21796 415.397 649.75696 417.838C 653.17395 423.461 656.79694 428.962 660.261 434.556C 661.378 436.171 661.631 438.132 661.594 440.047C 661.519 466.668 661.60297 493.29 661.55597 519.911C 662.082 522.352 659.35 522.943 657.698 523.75C 653.906 525.158 650.339 527.223 646.396 528.162C 634.85 522.06 623.745 515.105 612.331 508.74C 609.308 506.853 605.6 505.55798 603.761 502.291C 599.659 495.767 595.5 489.271 591.389 482.766C 590.10297 481.011 590.131 478.79498 590.13995 476.74C 590.263 449.613 590.075 422.484 590.226 395.356zM620.273 423.132C 620.235 444.638 620.198 466.13397 620.292 487.63C 623.943 489.676 627.539 491.82602 631.256 493.769C 631.38696 473.99103 631.22797 454.203 631.341 434.42502C 631.256 432.70703 631.454 430.924 630.843 429.29C 627.492 426.962 623.775 425.225 620.273 423.132z" stroke="#FFFFFF" stroke-width="0.5" fill="#FFFFFF" fill-rule="nonzero" />
        <path d="M283.966 403.401L284.492 403.72C 300.67502 413.548 317.384 422.485 333.501 432.41602C 325.212 445.83002 317.67502 459.704 309.65802 473.28702C 284.70703 516.46704 259.851 559.713 234.80603 602.83704C 234.65604 603.231 234.37402 604.00104 234.23303 604.38605C 224.30203 598.66907 214.38004 592.91504 204.44803 587.189C 197.85803 583.30304 190.98703 579.848 184.82002 575.296C 217.826 517.969 251.046 460.774 283.966 403.401z" stroke="#D35F5F" stroke-width="0.5" fill="#D35F5F" fill-rule="nonzero" />
        <path d="M1207.569 613.622C 1328.4359 543.774 1449.396 474.08502 1570.216 404.161C 1570.1129 422.71902 1570.2539 441.268 1570.1599 459.82602C 1570.3289 461.497 1568.3949 462.023 1567.335 462.811C 1551.7529 471.588 1536.424 480.815 1520.804 489.508C 1506.085 497.468 1491.7699 506.179 1477.22 514.449C 1333.984 597.12897 1190.7579 679.819 1047.531 762.52795C 1007.364 785.61096 967.348 808.98395 927.08704 831.92596C 926.77704 851.16895 927.049 870.42194 926.95605 889.675C 926.78705 908.881 927.31305 928.096 926.6741 947.28296C 920.1131 950.30597 914.0771 954.32294 907.76904 957.82495C 897.92206 963.55096 888.00903 969.14594 878.20905 974.93695C 877.918 975.10596 877.34503 975.46295 877.064 975.63196C 860.674 984.83093 844.557 994.509 828.148 1003.67993C 827.998 988.52893 828.176 973.38794 828.064 958.24695C 828.13904 953.41296 827.33203 948.1749 829.85706 943.79095C 850.10504 908.928 870.18304 873.97095 890.37506 839.06995C 899.74304 823.0369 908.63306 806.74097 918.07605 790.746C 921.296 785.49896 923.689 779.67896 927.82904 775.05096C 1021.134 721.337 1114.31 667.4 1207.569 613.622z" stroke="#782121" stroke-width="0.5" fill="#782121" fill-rule="nonzero" />
        <path d="M620.273 423.132C 623.774 425.22498 627.492 426.96198 630.843 429.28998C 631.453 430.92297 631.25604 432.70697 631.341 434.425C 631.228 454.203 631.388 473.991 631.256 493.76898C 627.539 491.826 623.944 489.676 620.292 487.62997C 620.198 466.134 620.236 444.638 620.273 423.132z" stroke="#D35F5F" stroke-width="0.5" fill="#D35F5F" fill-rule="nonzero" />
        <path d="M670.925 426.84C 688.235 436.63098 705.36597 446.76898 722.666 456.587C 725.182 458.023 727.97003 459.394 729.46204 462.022C 733.12305 467.767 736.671 473.587 740.41705 479.275C 741.69403 481.35 743.33606 483.452 743.23303 486.034C 743.28906 494.82 743.242 503.606 743.21405 512.402C 739.10205 514.298 734.991 516.17596 730.88904 518.06195C 734.512 523.73193 738.18304 529.38293 741.79706 535.06195C 743.33606 537.19293 742.9991 539.92395 743.07404 542.40295C 742.93304 556.25793 743.168 570.113 742.94305 583.96893C 732.82404 578.4779 722.97705 572.50696 712.98004 566.7999C 712.91406 551.2269 713.111 535.65393 712.88605 520.08093C 708.934 517.87494 705.04803 515.5659 701.10504 513.36896C 701.02 528.80096 701.283 544.233 700.96405 559.65594C 690.7601 554.212 680.82904 548.2509 670.86005 542.39294C 670.963 503.87 670.822 465.355 670.925 426.84zM701.039 468.443C 701.152 475.145 701.086 481.848 701.09503 488.559C 705.028 490.831 708.952 493.121 712.90405 495.383C 712.98804 488.624 713.129 481.856 712.7911 475.098C 708.811 472.986 704.944 470.668 701.039 468.443z" stroke="#FFFFFF" stroke-width="0.5" fill="#FFFFFF" fill-rule="nonzero" />
        <path d="M309.658 473.287C 317.67398 459.70398 325.21198 445.83 333.50098 432.416C 349.79697 442.06598 366.21497 451.49 382.679 460.849C 350.05 518.034 316.81097 574.891 284.059 632.011C 272.729 626.144 261.896 619.376 250.79199 613.115C 245.42299 609.75397 239.312 607.42596 234.806 602.836C 259.851 559.713 284.708 516.467 309.658 473.287z" stroke="#FFFFFF" stroke-width="0.5" fill="#FFFFFF" fill-rule="nonzero" />
        <path d="M382.68 460.849C 399.417 470.076 416.004 479.595 432.328 489.536C 413.798 521.255 395.559 553.142 377.161 584.93604C 362.63 610.33704 347.677 635.494 333.427 661.046L333.427 661.046L332.854 660.783C 326.208 657.986 320.247 653.874 313.949 650.42004C 303.905 644.7601 294.142 638.57404 283.845 633.392C 283.892 633.054 284.005 632.359 284.061 632.012C 316.811 574.891 350.051 518.034 382.68 460.849z" stroke="#D35F5F" stroke-width="0.5" fill="#D35F5F" fill-rule="nonzero" />
        <path d="M701.039 468.443C 704.94403 470.668 708.811 472.986 712.791 475.098C 713.129 481.857 712.98804 488.625 712.904 495.383C 708.95197 493.121 705.028 490.83 701.095 488.559C 701.086 481.848 701.151 475.145 701.039 468.443z" stroke="#D35F5F" stroke-width="0.5" fill="#D35F5F" fill-rule="nonzero" />
        <path d="M752.536 473.934C 773.413 485.818 794.111 498.012 814.997 509.87698C 815.175 519.17 815.044 528.463 815.072 537.766C 804.239 531.618 793.51 525.309 782.706 519.123C 782.79 524.22 782.725 529.308 782.809 534.40497C 792.71204 539.831 802.353 545.735 812.247 551.198C 812.529 560.491 812.36 569.803 812.341 579.115C 802.447 573.511 792.647 567.747 782.772 562.125C 782.819 567.072 782.60297 572.019 782.79095 576.975C 782.631 578.22296 784.02094 578.768 784.847 579.397C 794.807 585.17 804.86 590.79297 814.745 596.71594C 814.68896 606.24396 814.90497 615.772 814.623 625.29895C 793.784 613.819 773.442 601.428 752.641 589.85394C 752.395 551.217 752.611 512.571 752.536 473.934z" stroke="#FFFFFF" stroke-width="0.5" fill="#FFFFFF" fill-rule="nonzero" />
        <path d="M377.16 584.935C 395.558 553.141 413.797 521.254 432.327 489.535C 448.707 499.072 465.087 508.647 481.609 517.94C 464.928 547.64 447.591 576.965 430.66602 606.525C 414.811 634.038 398.872 661.495 383.065 689.02704C 375.555 685.59106 368.694 680.99207 361.475 677.02106C 352.088 671.76404 342.973 666.00104 333.427 661.04407C 347.676 635.494 362.629 610.337 377.16 584.935z" stroke="#FFFFFF" stroke-width="0.5" fill="#FFFFFF" fill-rule="nonzero" />
        <path d="M1477.219 514.449C 1491.769 506.179 1506.084 497.468 1520.803 489.50797C 1520.869 508.62897 1520.8779 527.75995 1520.794 546.881C 1459.3839 582.045 1398.2 617.602 1336.8939 652.935C 1200.257 731.861 1063.5359 810.664 926.95593 889.674C 927.0499 870.421 926.77795 851.169 927.0869 831.925C 967.3479 808.983 1007.3639 785.61 1047.5309 762.527C 1190.757 679.819 1333.984 597.129 1477.219 514.449z" stroke="#ACACAC" stroke-width="0.5" fill="#ACACAC" fill-rule="nonzero" />
        <path d="M481.609 517.941C 484.58502 519.462 487.532 521.029 490.423 522.72797C 504.053 530.857 518.039 538.38495 531.529 546.74896C 527.812 551.98694 524.89197 557.722 521.626 563.24194C 491.98196 614.5609 462.37497 665.9069 432.70297 717.21594C 432.59998 717.63794 432.37396 718.483 432.27097 718.90594C 424.61096 713.8649 416.46295 709.66895 408.59695 704.9849C 400.15796 700.1879 391.88794 695.0629 383.26196 690.5849C 382.95197 709.4429 383.13995 728.3019 383.19595 747.1509L383.19595 747.1509L382.40796 747.0569C 382.72696 733.2859 382.48297 719.50586 382.55795 705.7359C 382.65195 700.1699 382.13596 694.5469 383.06494 689.0269C 398.87296 661.49493 414.81195 634.0379 430.66595 606.5249C 447.591 576.966 464.928 547.641 481.609 517.941z" stroke="#D35F5F" stroke-width="0.5" fill="#D35F5F" fill-rule="nonzero" />
        <path d="M521.626 563.242C 524.893 557.722 527.81195 551.987 531.529 546.749C 547.825 556.38904 564.243 565.833 580.717 575.17303C 547.816 632.22705 514.774 689.20605 481.97498 746.31604C 471.14197 740.65607 460.77 734.16907 450.11597 728.19006C 444.30496 724.54803 437.79095 721.9291 432.70297 717.21704C 462.375 665.907 491.982 614.561 521.626 563.242z" stroke="#FFFFFF" stroke-width="0.5" fill="#FFFFFF" fill-rule="nonzero" />
        <path d="M1336.893 652.935C 1398.199 617.602 1459.3839 582.045 1520.793 546.881C 1520.84 646.768 1520.802 746.65497 1520.812 846.541C 1520.896 861.03503 1520.606 875.537 1521.028 890.031C 1520.418 928.029 1520.953 966.056 1520.756 1004.073C 1506.892 1011.592 1493.393 1019.778 1479.679 1027.569C 1343.803 1106.025 1207.917 1184.463 1072.041 1262.919C 1023.70703 1290.9109 975.224 1318.6399 926.99304 1346.8009C 926.80505 1346.6699 926.44904 1346.4159 926.26105 1346.294C 927.585 1337.4609 926.73004 1328.5239 926.95605 1319.6439C 926.9 1214.444 927.0591 1109.2349 926.88104 1004.0349C 926.9 985.11993 927.23804 966.1869 926.67505 947.2809C 927.31305 928.0939 926.788 908.8789 926.95703 889.67285C 1063.535 810.664 1200.257 731.86 1336.893 652.935zM1421.705 660.763L1421.705 661.551C 1420.1749 662.208 1418.673 662.88403 1417.2369 663.67303C 1352.72 700.92004 1288.2319 738.20605 1223.6869 775.387C 1207.2689 784.69904 1191.0018 794.26404 1174.6119 803.62305C 1171.392 805.64105 1168.0969 807.51904 1164.8209 809.41504C 1102.0879 845.63007 1039.3639 881.864 976.62195 918.06903C 976.14294 934.89 976.54694 951.74005 976.415 968.57104C 976.415 997.99005 976.415 1027.399 976.415 1056.8091C 976.62195 1067.6321 975.974 1078.483 976.772 1089.2881L976.772 1089.2881L977.56995 1088.8281C 975.39197 1092.3112 976.80994 1096.9672 976.45294 1100.9281C 976.62195 1116.0131 976.17096 1131.1161 976.6779 1146.211C 979.8599 1144.7191 982.9389 1143.01 985.9329 1141.18C 1065.2429 1095.353 1144.601 1049.619 1223.8829 1003.75507L1223.8829 1003.75507L1223.892 1003.0981C 1229.327 1001.3141 1233.898 997.77606 1238.892 995.1101C 1309.735 954.2671 1380.532 913.3311 1451.3569 872.4691C 1457.7959 868.4801 1464.8369 865.4011 1470.751 860.6231L1470.751 860.6231L1471.3419 860.9521C 1471.361 807.9631 1471.3419 754.9731 1471.351 701.9841C 1471.22 678.82605 1471.604 655.65906 1471.1539 632.51105C 1454.578 641.755 1438.395 651.714 1421.705 660.763z" stroke="#CCCCCC" stroke-width="0.5" fill="#CCCCCC" fill-rule="nonzero" />
        <path d="M184.737 632.349C 184.84 613.331 184.671 594.313 184.821 575.295C 190.988 579.84796 197.859 583.302 204.449 587.188C 214.38 592.914 224.302 598.66797 234.23401 604.385C 234.20601 623.178 234.21501 641.98 234.225 660.773C 227.21301 657.262 220.586 653.038 213.74301 649.208C 204.092 643.548 194.311 638.122 184.737 632.349z" stroke="#C83737" stroke-width="0.5" fill="#C83737" fill-rule="nonzero" />
        <path d="M580.717 575.173C 597.604 584.44696 614.238 594.18195 630.80597 604C 627.586 607.52 625.50195 611.848 623.146 615.95C 592.601 668.78 562.149 721.675 531.576 774.487C 531.463 774.759 531.238 775.285 531.125 775.548C 519.682 769.38995 508.596 762.594 497.276 756.22C 492.17902 753.272 487.194 750.08997 481.769 747.76196C 481.825 747.40497 481.92902 746.673 481.976 746.316C 514.773 689.206 547.815 632.227 580.717 575.173z" stroke="#D35F5F" stroke-width="0.5" fill="#D35F5F" fill-rule="nonzero" />
        <path d="M234.234 604.385C 234.375 604 234.65599 603.23 234.80699 602.836C 239.31299 607.426 245.424 609.754 250.793 613.115C 261.898 619.376 272.73 626.144 284.06 632.011C 284.004 632.358 283.891 633.053 283.844 633.391C 283.534 652.165 283.76898 670.948 283.731 689.722C 277.723 686.93396 272.166 683.28296 266.39297 680.063C 256.49 674.318 246.58698 668.592 236.64598 662.932C 235.81998 662.256 234.48698 661.918 234.22398 660.773C 234.215 641.98 234.206 623.178 234.234 604.385z" stroke="#CCCCCC" stroke-width="0.5" fill="#CCCCCC" fill-rule="nonzero" />
        <path d="M623.146 615.95C 625.502 611.848 627.586 607.52 630.80597 604C 646.82996 613.584 663.022 622.905 679.30896 632.039C 677.05597 637.53 673.714 642.468 670.80396 647.621C 640.86896 699.65295 610.68994 751.54395 580.84894 803.623C 569.80096 797.287 558.75195 790.95996 547.7509 784.539C 542.29694 781.282 536.4489 778.616 531.5769 774.486C 562.149 721.675 592.6 668.78 623.146 615.95z" stroke="#FFFFFF" stroke-width="0.5" fill="#FFFFFF" fill-rule="nonzero" />
        <path d="M679.308 632.039C 685.701 635.343 691.83997 639.107 698.10095 642.665C 708.5579 648.85095 719.259 654.633 729.566 661.082C 723.88696 668.91095 719.69995 677.69696 714.669 685.93896C 691.32404 726.397 667.959 766.845 644.605 807.303C 639.94 815.72296 634.69196 823.824 630.35596 832.423C 629.699 851.49695 630.74097 870.61896 629.85895 889.68396L629.85895 889.68396L629.83997 889.80597L629.568 889.03595C 629.746 870.23395 629.953 851.42194 629.502 832.62994C 613.309 823.074 596.95703 813.7999 580.69 804.36597L580.69 804.36597L580.85 803.62396C 610.691 751.545 640.87 699.65393 670.805 647.62195C 673.713 642.468 677.055 637.531 679.308 632.039z" stroke="#D35F5F" stroke-width="0.5" fill="#D35F5F" fill-rule="nonzero" />
        <path d="M1421.705 660.763C 1438.3949 651.714 1454.578 641.754 1471.1549 632.508C 1471.606 655.656 1471.221 678.823 1471.3519 701.981C 1471.3429 754.97003 1471.361 807.96 1471.3429 860.94904L1471.3429 860.94904L1470.752 860.62006C 1454.334 851.3741 1438.142 841.73303 1421.752 832.44006C 1421.6489 775.48004 1421.752 718.5101 1421.705 661.55005L1421.705 661.55005L1421.705 660.763z" stroke="#ACACAC" stroke-width="0.5" fill="#ACACAC" fill-rule="nonzero" />
        <path d="M283.844 633.391C 294.141 638.573 303.904 644.759 313.948 650.419C 320.247 653.873 326.207 657.985 332.853 660.782C 333.623 675.11597 332.956 689.497 333.21 703.859C 333.257 708.44 333.40698 713.077 332.45898 717.592C 316.06897 708.552 300.093 698.79895 283.731 689.722C 283.769 670.948 283.534 652.165 283.844 633.391z" stroke="#C83737" stroke-width="0.5" fill="#C83737" fill-rule="nonzero" />
        <path d="M332.854 660.782L333.427 661.045C 342.974 666.001 352.088 671.76495 361.475 677.022C 368.694 680.993 375.555 685.592 383.065 689.02795C 382.13602 694.548 382.652 700.17 382.558 705.73694C 382.483 719.50793 382.72702 733.28796 382.40802 747.0579C 365.859 737.8399 349.58203 728.14294 333.13602 718.7559C 332.92902 718.64294 332.52603 718.4179 332.329 718.30493L332.329 718.30493L332.46002 717.5919C 333.40802 713.0769 333.25803 708.43994 333.21103 703.85895C 332.957 689.497 333.623 675.116 332.854 660.782z" stroke="#CCCCCC" stroke-width="0.5" fill="#CCCCCC" fill-rule="nonzero" />
        <path d="M714.669 685.939C 719.7 677.697 723.887 668.911 729.566 661.08203C 745.683 670.572 761.84796 680.025 778.19995 689.111C 775.20593 696.442 770.57794 702.947 766.82294 709.88403C 746.0869 745.78906 725.35095 781.69403 704.6339 817.609C 696.3919 832.112 687.7279 846.37103 679.7869 861.043L679.7869 861.043L679.3079 860.71405C 663.1439 851.0361 646.7819 841.6581 630.3549 832.42206C 634.6919 823.82306 639.9389 815.7231 644.60394 807.30206C 667.959 766.846 691.323 726.397 714.669 685.939z" stroke="#FFFFFF" stroke-width="0.5" fill="#FFFFFF" fill-rule="nonzero" />
        <path d="M1417.237 663.673C 1418.6731 662.884 1420.175 662.209 1421.7051 661.55096C 1421.7521 718.511 1421.649 775.48096 1421.7521 832.441C 1356.6821 870.092 1291.555 907.631 1226.456 945.225C 1224.672 946.06995 1223.7151 947.769 1223.9501 949.74C 1223.8661 967.519 1224.0531 985.307 1223.894 1003.096L1223.894 1003.096L1223.885 1003.753C 1223.463 927.634 1223.857 851.506 1223.688 775.38696C 1288.231 738.206 1352.72 700.921 1417.237 663.673z" stroke="#55DDFF" stroke-width="0.5" fill="#55DDFF" fill-rule="nonzero" />
        <path d="M778.2 689.112C 781.917 691.018 785.55 693.092 789.155 695.214C 802.353 703.015 815.786 710.402 828.89 718.362C 826.205 720.859 824.44104 724.116 822.70404 727.289C 791.80206 781.151 760.468 834.77 729.69806 888.698C 729.55707 889.027 729.28503 889.693 729.14404 890.022C 714.92303 881.884 700.767 873.623 686.53705 865.49396C 684.20905 864.123 681.994 862.57495 679.788 861.045C 687.729 846.373 696.39404 832.114 704.635 817.61096C 725.352 781.696 746.088 745.79095 766.82404 709.886C 770.577 702.948 775.205 696.443 778.2 689.112z" stroke="#D35F5F" stroke-width="0.5" fill="#D35F5F" fill-rule="nonzero" />
        <path d="M383.262 690.586C 391.889 695.064 400.159 700.189 408.597 704.986C 416.46298 709.67004 424.611 713.866 432.271 718.90704C 431.999 737.681 432.449 756.46405 432.055 775.22906C 415.74 765.91705 399.595 756.30505 383.19598 747.1531C 383.14 728.303 382.952 709.444 383.262 690.586z" stroke="#C83737" stroke-width="0.5" fill="#C83737" fill-rule="nonzero" />
        <path d="M432.271 718.906C 432.374 718.484 432.6 717.639 432.703 717.216C 437.79102 721.928 444.305 724.547 450.116 728.189C 460.77 734.168 471.143 740.655 481.975 746.315C 481.928 746.672 481.825 747.404 481.768 747.761C 481.59 766.526 481.505 785.318 481.824 804.083C 465.453 794.762 449.073 785.459 432.918 775.762C 432.702 775.63104 432.27 775.36804 432.054 775.22705C 432.449 756.464 431.999 737.68 432.271 718.906z" stroke="#CCCCCC" stroke-width="0.5" fill="#CCCCCC" fill-rule="nonzero" />
        <path d="M333.135 718.756C 349.581 728.143 365.858 737.83997 382.407 747.058C 382.53802 765.85095 382.43503 784.65295 382.445 803.446C 375.70502 800.414 369.557 796.284 363.13602 792.67896C 353.37402 787.131 343.64902 781.5369 333.989 775.81995C 333.21002 762.04895 334.562 748.2219 333.247 734.4799C 332.797 729.251 332.976 723.994 333.135 718.756z" stroke="#E0E0E0" stroke-width="0.5" fill="#E0E0E0" fill-rule="nonzero" />
        <path d="M822.703 727.289C 824.44 724.116 826.204 720.859 828.889 718.362C 844.90295 727.955 861.105 737.258 877.391 746.401C 869.872 760.557 861.443 774.215 853.567 788.173C 828.663 831.44696 803.50604 874.589 778.762 917.957C 762.41003 908.457 746.00104 899.061 729.64905 889.571L729.64905 889.571L729.69604 888.698C 760.468 834.77 791.801 781.151 822.703 727.289z" stroke="#FFFFFF" stroke-width="0.5" fill="#FFFFFF" fill-rule="nonzero" />
        <path d="M333.248 734.479C 334.56198 748.222 333.21 762.049 333.99 775.81903C 343.649 781.536 353.374 787.13 363.137 792.67804C 369.55798 796.283 375.706 800.413 382.44598 803.44507L382.44598 803.44507L382.455 804.2991C 382.511 840.28906 382.50198 876.2881 382.44598 912.28705C 382.48398 914.02405 382.568 915.788 382.75598 917.54407L382.75598 917.54407L383.33798 917.98505C 461.344 963.343 539.631 1008.25006 617.72095 1053.467C 621.49493 1055.7201 625.324 1057.869 629.28595 1059.8031C 629.90594 1041.1041 628.94794 1022.3771 629.76495 1003.6971C 630.44995 984.7731 629.83093 965.8301 630.09393 946.90607C 644.8129 954.56604 658.87396 963.4361 673.3399 971.5751C 675.2459 972.58905 677.2069 973.49005 679.1789 974.40106C 679.6859 995.6061 679.2729 1016.82104 679.4039 1038.035C 679.36584 1093.099 679.48785 1148.172 679.3379 1203.2361C 673.1889 1200.4391 667.5199 1196.7781 661.6529 1193.4641C 595.6059 1155.3441 529.5599 1117.2041 463.51288 1079.0741C 420.16388 1054.1421 376.97488 1028.9291 333.53186 1004.1571C 333.18488 1023.2311 333.43787 1042.3151 333.40085 1061.3892C 332.83786 1039.2172 333.32584 1017.0262 333.19385 994.8541C 333.19385 964.18713 333.18484 933.5291 333.20285 902.8621C 333.17484 898.57214 333.33386 894.2821 332.90286 890.0211C 332.66788 847.0661 333.13785 804.0741 332.58386 761.11914C 332.891 752.239 331.859 743.294 333.248 734.479z" stroke="#ECECEC" stroke-width="0.5" fill="#ECECEC" fill-rule="nonzero" />
        <path d="M877.392 746.401C 894.401 755.591 910.781 765.926 927.828 775.05C 923.688 779.678 921.295 785.498 918.075 790.745C 908.632 806.74 899.742 823.036 890.374 839.069C 870.18304 873.97 850.104 908.927 829.856 943.79C 827.331 948.17395 828.138 953.412 828.063 958.246C 828.17596 973.38696 827.997 988.52795 828.147 1003.67896L828.147 1003.67896L827.43396 1003.3129C 826.96497 984.3889 827.62195 965.43695 827.12396 946.5119C 810.847 937.4629 794.889 927.8599 778.64996 918.7449L778.64996 918.7449L778.76294 917.95685C 803.50696 874.58887 828.66394 831.44684 853.56793 788.17285C 861.443 774.214 869.873 760.556 877.392 746.401z" stroke="#D35F5F" stroke-width="0.5" fill="#D35F5F" fill-rule="nonzero" />
        <path d="M382.407 747.058L383.195 747.152C 399.594 756.30396 415.74 765.917 432.05402 775.22797C 432.27002 775.36896 432.70203 775.63196 432.91803 775.76294C 432.37402 778.9829 432.09204 782.24896 432.12003 785.52496C 432.308 801.126 432.08203 816.727 432.24203 832.33795C 420.88403 825.9639 409.72302 819.2529 398.41104 812.8129C 393.24805 809.6959 388.07605 806.5329 382.45303 804.29895L382.45303 804.29895L382.44403 803.44495C 382.436 784.653 382.539 765.85 382.407 747.058z" stroke="#C2C2C2" stroke-width="0.5" fill="#C2C2C2" fill-rule="nonzero" />
        <path d="M481.768 747.762C 487.194 750.09 492.178 753.27203 497.275 756.22003C 508.596 762.59406 519.682 769.39 531.124 775.54803C 531.124 791.70306 531.096 807.85803 531.171 824.01306C 531.171 826.71606 530.861 829.4111 530.34503 832.0671C 514.228 822.6421 498.08203 813.2651 481.82404 804.0841C 481.506 785.319 481.59 766.526 481.768 747.762z" stroke="#C83737" stroke-width="0.5" fill="#C83737" fill-rule="nonzero" />
        <path d="M531.125 775.547C 531.238 775.284 531.463 774.759 531.576 774.486C 536.448 778.616 542.29596 781.28204 547.75 784.539C 558.752 790.96 569.8 797.286 580.848 803.623L580.848 803.623L580.68805 804.365C 580.33105 823.214 580.87604 842.082 580.42505 860.93097C 563.585 851.57196 546.942 841.847 530.34503 832.066C 530.861 829.409 531.171 826.71497 531.171 824.01196C 531.097 807.857 531.125 791.702 531.125 775.547z" stroke="#CCCCCC" stroke-width="0.5" fill="#CCCCCC" fill-rule="nonzero" />
        <path d="M1174.611 803.624C 1191.001 794.265 1207.268 784.7 1223.6859 775.388C 1223.8549 851.507 1223.4609 927.635 1223.8829 1003.754C 1207.3429 994.35803 1190.888 984.82104 1174.4609 975.236C 1174.32 927.025 1174.4419 878.804 1174.4049 830.583C 1174.471 821.6 1174.198 812.607 1174.611 803.624z" stroke="#ACACAC" stroke-width="0.5" fill="#ACACAC" fill-rule="nonzero" />
        <path d="M432.121 785.526C 432.093 782.25 432.374 778.983 432.919 775.764C 449.074 785.461 465.454 794.763 481.825 804.08496C 498.083 813.26495 514.229 822.64294 530.346 832.06793C 546.942 841.84894 563.585 851.5739 580.426 860.9329C 596.872 870.1889 612.999 880.02594 629.567 889.0379L629.567 889.0379L629.839 889.8079C 628.797 908.49695 629.90497 927.27094 629.304 945.9889C 612.783 937.0899 596.76904 927.2619 580.398 918.06287C 536.589 892.69885 492.724 867.43884 448.896 842.1039C 443.386 839.0439 438.15698 835.44885 432.244 833.18585L432.244 833.18585L432.244 832.3409C 432.083 816.728 432.309 801.127 432.121 785.526z" stroke="#51D2F2" stroke-width="0.5" fill="#51D2F2" fill-rule="nonzero" />
        <path d="M1164.821 809.415C 1168.097 807.519 1171.3921 805.641 1174.612 803.623C 1174.1991 812.60596 1174.4711 821.599 1174.405 830.582C 1174.443 878.803 1174.321 927.024 1174.461 975.235C 1108.827 1013.093 1043.2881 1051.11 977.5691 1088.827L977.5691 1088.827L976.7711 1089.287C 975.97314 1078.483 976.6211 1067.631 976.4141 1056.808C 976.4141 1027.3989 976.4141 997.989 976.4141 968.57C 976.5451 951.739 976.14215 934.89 976.6211 918.068C 1039.364 881.864 1102.088 845.63 1164.821 809.415z" stroke="#55DDFF" stroke-width="0.5" fill="#55DDFF" fill-rule="nonzero" />
        <path d="M382.454 804.3C 388.077 806.534 393.24902 809.69696 398.41202 812.81396C 409.72302 819.253 420.88403 825.96497 432.243 832.339L432.243 832.339L432.243 833.18396C 432.14902 851.99493 432.187 870.816 432.215 889.6279C 415.938 899.10895 399.539 908.38293 383.337 917.9859L383.337 917.9859L382.755 917.5449C 382.56702 915.7899 382.483 914.0249 382.445 912.2879C 382.501 876.288 382.511 840.289 382.454 804.3z" stroke="#CCCCCC" stroke-width="0.5" fill="#CCCCCC" fill-rule="nonzero" />
        <path d="M580.688 804.365C 596.956 813.799 613.308 823.073 629.5 832.62897C 629.951 851.422 629.744 870.233 629.566 889.035C 612.998 880.02295 596.871 870.186 580.425 860.93C 580.876 842.082 580.332 823.214 580.688 804.365z" stroke="#C83737" stroke-width="0.5" fill="#C83737" fill-rule="nonzero" />
        <path d="M630.355 832.423C 646.782 841.66 663.144 851.037 679.308 860.71497C 680.087 880.024 678.886 899.389 679.928 918.68896C 680.867 937.65094 679.881 956.66895 680.397 975.65894C 696.712 984.78296 712.604 994.6859 729.15295 1003.38794C 729.19995 1060.789 729.256 1118.1909 729.1149 1175.583C 719.3239 1180.4921 710.08795 1186.406 700.5319 1191.738C 693.55695 1195.972 686.15094 1199.529 679.5329 1204.326C 679.4859 1204.0541 679.3829 1203.509 679.3359 1203.237C 679.4859 1148.1731 679.3639 1093.1001 679.40186 1038.036C 679.2709 1016.821 679.68384 995.607 679.1769 974.40204C 678.97986 955.69403 679.5149 936.976 678.93286 918.28705C 662.52386 909.257 646.62286 899.3251 630.1299 890.46405L630.1299 890.46405L629.8579 889.68506C 630.74 870.619 629.698 851.497 630.355 832.423z" stroke="#CCCCCC" stroke-width="0.5" fill="#CCCCCC" fill-rule="nonzero" />
        <path d="M1226.456 945.226C 1291.555 907.631 1356.681 870.093 1421.7521 832.442C 1438.1421 841.73505 1454.3341 851.37604 1470.7521 860.622C 1464.8381 865.4 1457.7981 868.479 1451.358 872.468C 1380.5331 913.33 1309.737 954.266 1238.8931 995.109C 1233.899 997.775 1229.3281 1001.314 1223.8931 1003.097C 1224.0531 985.30896 1223.8651 967.51996 1223.9491 949.74097C 1223.715 947.77 1224.672 946.071 1226.456 945.226z" stroke="#FFFFFF" stroke-width="0.5" fill="#FFFFFF" fill-rule="nonzero" />
        <path d="M432.243 833.183C 438.157 835.445 443.385 839.04 448.89502 842.101C 492.72302 867.43604 536.588 892.697 580.39703 918.06C 596.768 927.259 612.78204 937.087 629.30304 945.986C 629.90405 927.268 628.796 908.494 629.838 889.80505L629.838 889.80505L629.857 889.68304L630.12897 890.46204C 629.988 909.27405 630.045 928.085 630.09094 946.906C 629.82794 965.83 630.44794 984.773 629.76196 1003.697C 563.941 965.614 498.08197 927.616 432.21295 889.627C 432.187 870.816 432.149 851.995 432.243 833.183z" stroke="#55DDFF" stroke-width="0.5" fill="#55DDFF" fill-rule="nonzero" />
        <path d="M679.308 860.715L679.787 861.044C 681.993 862.57404 684.208 864.123 686.536 865.493C 700.767 873.622 714.922 881.883 729.143 890.021C 728.711 908.804 729.24603 927.61597 728.89 946.41797C 712.369 937.53796 696.552 927.381 679.92804 918.68896C 678.885 899.39 680.087 880.024 679.308 860.715z" stroke="#C83737" stroke-width="0.5" fill="#C83737" fill-rule="nonzero" />
        <path d="M729.143 890.021C 729.284 889.692 729.556 889.026 729.697 888.697L729.697 888.697L729.65 889.57C 729.77203 908.597 729.81 927.63403 729.64105 946.662C 728.60803 965.549 729.5281 984.482 729.1531 1003.38696C 712.60406 994.68494 696.7121 984.782 680.3971 975.65796C 679.8811 956.66797 680.8661 937.64996 679.9281 918.688C 696.5521 927.38 712.3691 937.537 728.8901 946.417C 729.247 927.616 728.712 908.805 729.143 890.021z" stroke="#C2C2C2" stroke-width="0.5" fill="#C2C2C2" fill-rule="nonzero" />
        <path d="M383.337 917.985C 399.539 908.38196 415.93802 899.108 432.215 889.627C 498.083 927.616 563.942 965.614 629.764 1003.697C 628.94696 1022.377 629.90497 1041.104 629.285 1059.803C 625.324 1057.869 621.49396 1055.72 617.72 1053.4669C 539.63 1008.25 461.342 963.343 383.337 917.985z" stroke="#FFFFFF" stroke-width="0.5" fill="#FFFFFF" fill-rule="nonzero" />
        <path d="M729.65 889.571C 746.002 899.061 762.411 908.458 778.763 917.957L778.763 917.957L778.65 918.745C 778.36804 937.594 778.744 956.443 778.47205 975.292C 762.02606 966.365 746.19006 956.349 729.66003 947.582L729.66003 947.582L729.64105 946.662C 729.81 927.635 729.772 908.598 729.65 889.571z" stroke="#CCCCCC" stroke-width="0.5" fill="#CCCCCC" fill-rule="nonzero" />
        <path d="M313.225 901.145C 319.79602 897.465 326.16 893.401 332.9 890.021C 333.332 894.283 333.172 898.573 333.19998 902.862C 333.18097 933.529 333.19098 964.187 333.19098 994.854C 333.322 1017.026 332.83398 1039.217 333.39798 1061.389C 364.06497 1078.577 394.31897 1096.487 424.82697 1113.956C 508.34296 1162.177 591.8779 1210.3601 675.365 1258.628C 676.867 1259.435 678.435 1260.139 680.058 1260.7311C 696.251 1251.55 712.161 1241.826 728.542 1232.983C 729.02997 1233.011 729.997 1233.058 730.485 1233.086C 736.605 1235.5171 742.05896 1239.244 747.776 1242.4641C 781.532 1261.8951 815.221 1281.4291 848.977 1300.8601C 858.53296 1306.1171 867.638 1312.2091 877.513 1316.8741C 877.513 1317.2682 877.504 1318.0571 877.494 1318.4512C 877.36304 1337.4502 877.306 1356.4681 877.52203 1375.4672C 894.174 1384.5721 910.301 1394.6162 926.98206 1403.6752C 955.01105 1387.8582 982.75903 1371.5251 1010.676 1355.5012C 1180.7211 1257.3982 1350.672 1159.1262 1520.755 1061.0883C 1520.858 1042.0792 1520.811 1023.0713 1520.755 1004.0713C 1520.952 966.0543 1520.417 928.0273 1521.027 890.0293C 1535.943 897.9893 1550.371 906.8793 1565.108 915.2053C 1649.272 963.7923 1733.435 1012.3883 1817.608 1060.9854C 1816.848 1061.5393 1816.097 1062.1023 1815.365 1062.6564C 1809.273 1066.8334 1802.768 1070.3353 1796.385 1074.0054C 1509.35 1239.7513 1222.297 1405.4594 935.262 1571.1864C 933.14105 1572.3134 930.963 1573.3174 928.841 1574.4434C 922.88 1572.6134 917.661 1569.1774 912.357 1566.0144C 636.23 1406.5864 360.10297 1247.1575 83.966 1087.7484C 68.29 1078.7554 52.745003 1069.5194 36.947002 1060.7515C 128.969 1007.415 221.149 954.369 313.225 901.145z" stroke="#12333B" stroke-width="0.5" fill="#12333B" fill-rule="nonzero" />
        <path d="M630.13 890.463C 646.623 899.32404 662.524 909.256 678.933 918.286C 679.51495 936.97504 678.98 955.693 679.177 974.401C 677.206 973.49 675.244 972.589 673.338 971.575C 658.873 963.437 644.81104 954.56604 630.09204 946.906C 630.045 928.086 629.989 909.274 630.13 890.463z" stroke="#E0E0E0" stroke-width="0.5" fill="#E0E0E0" fill-rule="nonzero" />
        <path d="M778.65 918.745C 794.88904 927.86 810.84705 937.463 827.124 946.512C 827.62103 965.43604 826.96405 984.388 827.434 1003.31305C 810.95 994.26404 794.861 984.51105 778.47205 975.293C 778.744 956.444 778.369 937.595 778.65 918.745z" stroke="#C83737" stroke-width="0.5" fill="#C83737" fill-rule="nonzero" />
        <path d="M729.153 1003.388C 729.528 984.483 728.609 965.549 729.641 946.663L729.641 946.663L729.66 947.583C 730.39197 966.638 729.46295 985.732 730.12897 1004.787C 743.956 1012.081 757.22 1020.351 770.868 1027.954C 787.258 1037.585 803.83496 1046.906 820.206 1056.575C 823.388 1058.3209 827.133 1061.747 830.87 1059.307C 841.036 1053.553 851.146 1047.677 861.246 1041.8C 866.55 1038.74 871.759 1035.464 877.43896 1033.1171C 877.542 1109.0011 877.477 1184.8861 877.477 1260.77C 827.914 1232.665 778.848 1203.6691 729.294 1175.546C 728.947 1193.24 729.36 1210.954 729.088 1228.657C 729.12604 1230.215 728.872 1232.158 730.487 1233.088C 729.999 1233.06 729.032 1233.0131 728.544 1232.985C 729.614 1222.49 728.816 1211.902 729.06 1201.37C 729.079 1192.771 728.985 1184.182 729.116 1175.584C 729.256 1118.191 729.2 1060.789 729.153 1003.388z" stroke="#55DDFF" stroke-width="0.5" fill="#55DDFF" fill-rule="nonzero" />
        <path d="M729.66 947.582C 746.19 956.349 762.026 966.365 778.472 975.292C 794.862 984.51 810.951 994.263 827.43396 1003.312L827.43396 1003.312L828.147 1003.67804C 844.555 994.507 860.673 984.82904 877.063 975.63007C 877.90796 984.82904 877.39197 994.0751 877.523 1003.2931C 877.504 1013.2341 877.57904 1023.1751 877.438 1033.1151C 871.759 1035.4622 866.549 1038.7382 861.245 1041.7981C 851.145 1047.6741 841.035 1053.5511 830.869 1059.305C 827.133 1061.7461 823.388 1058.3191 820.205 1056.573C 803.83405 1046.904 787.257 1037.583 770.867 1027.952C 757.218 1020.349 743.955 1012.07904 730.128 1004.78503C 729.463 985.731 730.392 966.638 729.66 947.582z" stroke="#51D2F2" stroke-width="0.5" fill="#51D2F2" fill-rule="nonzero" />
        <path d="M907.768 957.823C 914.076 954.322 920.112 950.304 926.67303 947.281C 927.236 966.18604 926.898 985.12 926.879 1004.03503C 910.452 1012.765 894.804 1022.92206 878.31104 1031.529C 877.879 1012.6711 878.114 993.793 878.208 974.93506C 888.008 969.144 897.921 963.55 907.768 957.823z" stroke="#E0E0E0" stroke-width="0.5" fill="#E0E0E0" fill-rule="nonzero" />
        <path d="M877.063 975.631C 877.345 975.462 877.917 975.105 878.208 974.936C 878.114 993.79395 877.879 1012.672 878.31104 1031.53C 894.804 1022.92206 910.452 1012.765 926.879 1004.036C 927.057 1109.236 926.898 1214.4451 926.95404 1319.645C 926.72906 1328.525 927.58307 1337.461 926.25903 1346.295C 916.67505 1340.6161 906.95 1335.1531 897.328 1329.5391C 890.71 1325.8501 884.336 1321.7101 877.493 1318.453C 877.50195 1318.059 877.51196 1317.27 877.51196 1316.876C 877.503 1298.168 877.57794 1279.469 877.47394 1260.77C 877.47394 1184.886 877.5399 1109.001 877.4359 1033.1171C 877.5769 1023.1761 877.5019 1013.23505 877.52094 1003.29504C 877.392 994.076 877.908 984.83 877.063 975.631z" stroke="#ECECEC" stroke-width="0.5" fill="#ECECEC" fill-rule="nonzero" />
        <path d="M977.57 1088.828C 1043.288 1051.111 1108.828 1013.094 1174.462 975.236C 1190.889 984.82 1207.3451 994.357 1223.884 1003.754C 1144.602 1049.619 1065.244 1095.352 985.934 1141.1791C 982.94 1143.009 979.861 1144.718 976.679 1146.2101C 976.172 1131.1161 976.623 1116.0121 976.45404 1100.9271C 976.809 1096.967 975.392 1092.311 977.57 1088.828z" stroke="#FFFFFF" stroke-width="0.5" fill="#FFFFFF" fill-rule="nonzero" />
        <path d="M333.529 1004.158C 376.972 1028.93 420.161 1054.144 463.51 1079.0751C 529.557 1117.2051 595.604 1155.3441 661.65 1193.4651C 667.517 1196.779 673.187 1200.4391 679.335 1203.237C 679.382 1203.509 679.48505 1204.0541 679.53204 1204.326C 680.7991 1210.775 680.12305 1217.365 680.236 1223.8981C 680.142 1236.1671 680.461 1248.4541 680.05804 1260.732C 678.434 1260.1411 676.866 1259.437 675.36505 1258.629C 591.8771 1210.3611 508.34305 1162.178 424.82706 1113.957C 394.31906 1096.488 364.06506 1078.577 333.39807 1061.39C 333.436 1042.316 333.182 1023.232 333.529 1004.158z" stroke="#D35F5F" stroke-width="0.5" fill="#D35F5F" fill-rule="nonzero" />
        <path d="M1479.679 1027.569C 1493.393 1019.77795 1506.892 1011.592 1520.756 1004.073C 1520.812 1023.072 1520.859 1042.081 1520.756 1061.09C 1350.674 1159.127 1180.7219 1257.3999 1010.677 1355.5029C 982.76 1371.527 955.012 1387.86 926.98303 1403.6769C 926.945 1384.7148 926.927 1365.7539 926.992 1346.8009C 975.222 1318.6399 1023.706 1290.9109 1072.04 1262.919C 1207.917 1184.463 1343.802 1106.025 1479.679 1027.569z" stroke="#782121" stroke-width="0.5" fill="#782121" fill-rule="nonzero" />
        <path d="M36.404 1060.451L36.947998 1060.7511C 52.746 1069.5181 68.291 1078.7551 83.966995 1087.748C 360.104 1247.1581 636.23096 1406.586 912.358 1566.014C 917.662 1569.177 922.881 1572.613 928.842 1574.443C 926.53296 1576.452 926.899 1579.69 926.852 1582.459C 927.02997 1591.846 926.91797 1601.242 926.96497 1610.639C 927.01196 1617.7261 926.54297 1624.8511 927.49097 1631.9191L927.49097 1631.9191L927.57495 1632.623C 668.04395 1482.873 408.57898 1333.01 149.08496 1183.203C 111.49996 1161.604 74.07396 1139.722 36.40396 1118.273C 36.272 1099.003 36.282 1079.723 36.404 1060.451z" stroke="#26414C" stroke-width="0.5" fill="#26414C" fill-rule="nonzero" />
        <path d="M1815.366 1062.657C 1815.901 1062.319 1816.9619 1061.653 1817.497 1061.315C 1817.647 1080.173 1817.61 1099.0409 1817.5249 1117.8999C 1807.8099 1124.1709 1797.4929 1129.549 1787.5619 1135.4908C 1540.2059 1278.2948 1292.8499 1421.1079 1045.5029 1563.9219C 1006.14294 1586.5449 966.94293 1609.4489 927.4899 1631.9209C 926.54193 1624.8529 927.0109 1617.7279 926.9639 1610.6409C 926.91693 1601.2449 927.0299 1591.8479 926.85095 1582.4608C 926.89795 1579.6918 926.532 1576.4528 928.84094 1574.4448C 930.9619 1573.3188 933.13995 1572.3138 935.26196 1571.1879C 1222.297 1405.4608 1509.351 1239.7529 1796.385 1074.0068C 1802.769 1070.336 1809.274 1066.834 1815.366 1062.657z" stroke="#0C242C" stroke-width="0.5" fill="#0C242C" fill-rule="nonzero" />
        <path d="M700.532 1191.737C 710.088 1186.405 719.32495 1180.4911 729.115 1175.582C 728.984 1184.18 729.07697 1192.77 729.05896 1201.368C 728.81494 1211.9 729.613 1222.489 728.54297 1232.983C 712.16296 1241.826 696.25195 1251.55 680.05896 1260.7311C 680.46295 1248.4531 680.144 1236.165 680.23694 1223.8971C 680.12396 1217.3641 680.7999 1210.774 679.53296 1204.3251C 686.151 1199.529 693.557 1195.971 700.532 1191.737z" stroke="#C83737" stroke-width="0.5" fill="#C83737" fill-rule="nonzero" />
        <path d="M729.294 1175.545C 778.848 1203.6681 827.914 1232.665 877.477 1260.769C 877.58 1279.468 877.505 1298.167 877.515 1316.875C 867.64 1312.21 858.53503 1306.118 848.979 1300.861C 815.223 1281.4299 781.534 1261.896 747.778 1242.465C 742.06104 1239.245 736.607 1235.5189 730.487 1233.0869C 728.872 1232.158 729.126 1230.215 729.088 1228.6559C 729.359 1210.953 728.946 1193.239 729.294 1175.545z" stroke="#0C242C" stroke-width="0.5" fill="#0C242C" fill-rule="nonzero" />
        <path d="M877.495 1318.452C 884.338 1321.709 890.712 1325.849 897.33 1329.5381C 906.952 1335.1511 916.677 1340.6151 926.261 1346.2941C 926.449 1346.416 926.805 1346.6691 926.993 1346.801C 926.927 1365.753 926.946 1384.7151 926.984 1403.677C 910.303 1394.619 894.177 1384.574 877.524 1375.469C 877.307 1356.469 877.364 1337.451 877.495 1318.452z" stroke="#D35F5F" stroke-width="0.5" fill="#D35F5F" fill-rule="nonzero" />
	</g>
</g>
</svg>